<svg width="1400" height="360" viewBox="0 0 1400 360" fill="none" xmlns="http://www.w3.org/2000/svg" role="img" aria-labelledby="title desc">
  <title id="title">LangChain NVIDIA Integration Study</title><desc id="desc">An attributed integration study within Barry Clerjuste's Raven AI engineering portfolio.</desc>
  <defs><radialGradient id="bg" cx="0" cy="0" r="1" gradientUnits="userSpaceOnUse" gradientTransform="translate(1150 40) rotate(143) scale(600 470)"><stop stop-color="#35131C"/><stop offset=".5" stop-color="#0D0D0F"/><stop offset="1" stop-color="#050505"/></radialGradient><linearGradient id="red" x1="0" y1="0" x2="1" y2="1"><stop stop-color="#F04460"/><stop offset="1" stop-color="#8A1528"/></linearGradient><pattern id="grid" width="38" height="38" patternUnits="userSpaceOnUse"><path d="M38 0H0V38" stroke="#FFFFFF" stroke-opacity=".035"/></pattern></defs>
  <rect width="1400" height="360" rx="28" fill="url(#bg)"/><rect width="1400" height="360" rx="28" fill="url(#grid)"/><rect x="1" y="1" width="1398" height="358" rx="27" stroke="#FFFFFF" stroke-opacity=".08"/>
  <text x="78" y="72" fill="#C8273F" font-family="ui-monospace, monospace" font-size="13" letter-spacing="4">BARRY CLERJUSTE / ATTRIBUTED INTEGRATION STUDY</text>
  <text x="78" y="154" fill="#F4EFE7" font-family="Georgia, serif" font-size="55" font-weight="600">LangChain NVIDIA Study</text>
  <text x="80" y="205" fill="#C9AD7D" font-family="Avenir Next, Segoe UI, Arial, sans-serif" font-size="24">Retrieval routing and accelerated agent execution.</text>
  <line x1="80" y1="240" x2="760" y2="240" stroke="url(#red)" stroke-width="3"/>
  <text x="80" y="282" fill="#8F8A83" font-family="ui-monospace, monospace" font-size="14" letter-spacing="1">UPSTREAM LANGCHAIN + NVIDIA WORK  ·  EXPLICIT ATTRIBUTION</text>
  <g transform="translate(1048 72)"><rect x="0" y="0" width="235" height="190" rx="24" fill="#09090A" stroke="#C9AD7D" stroke-opacity=".2"/><circle cx="59" cy="63" r="25" fill="#151518" stroke="#C8273F"/><circle cx="176" cy="63" r="25" fill="#151518" stroke="#C9AD7D"/><rect x="92" y="116" width="52" height="40" rx="10" fill="url(#red)"/><path d="M83 63H151M70 86L104 118M165 86L133 118" stroke="#8F8A83" stroke-opacity=".6"/><text x="59" y="68" text-anchor="middle" fill="#F4EFE7" font-family="ui-monospace, monospace" font-size="11">RAG</text><text x="176" y="68" text-anchor="middle" fill="#F4EFE7" font-family="ui-monospace, monospace" font-size="11">NIM</text><text x="118" y="142" text-anchor="middle" fill="#FFF8F5" font-family="ui-monospace, monospace" font-size="11">ROUTE</text></g>
</svg>
